<svg xmlns="http://www.w3.org/2000/svg" xml:space="preserve"
	width="512px"
	height="512px"
	version="1.0"
	style="shape-rendering: geometricPrecision; text-rendering: geometricPrecision; image-rendering: optimizeQuality; fill-rule: evenodd; clip-rule: evenodd;"
	viewBox="0 0 512 512"
	xmlns:xlink="http://www.w3.org/1999/xlink">
	<g>
		<path d="M256 37c120.95,0 219,98.05 219,219 0,120.95 -98.05,219 -219,219 -120.95,0 -219,-98.05 -219,-219 0,-120.95 98.05,-219 219,-219zm0 21.75c108.938,0 197.25,88.312 197.25,197.25 0,108.938 -88.312,197.25 -197.25,197.25 -108.938,0 -197.25,-88.312 -197.25,-197.25 0,-108.938 88.312,-197.25 197.25,-197.25z" />
		<path d="M194.7 328.4c-11.2,0 -21.934,-1.5 -32.201,-4.5 -10.266,-3 -18.533,-6.9 -24.799,-11.7l11 -24.4c6,4.267 13.1,7.767 21.3,10.5 8.199,2.733 16.5,4.1 24.899,4.1 6.401,0 11.567,-0.634 15.501,-1.9 3.933,-1.267 6.833,-3.033 8.699,-5.3 1.867,-2.267 2.8,-4.867 2.8,-7.8 0,-3.733 -1.466,-6.7 -4.399,-8.9 -2.934,-2.2 -6.8,-4 -11.6,-5.4 -4.801,-1.4 -10.101,-2.733 -15.9,-4 -5.8,-1.267 -11.6,-2.833 -17.4,-4.7 -5.8,-1.867 -11.1,-4.267 -15.9,-7.2 -4.8,-2.933 -8.7,-6.8 -11.7,-11.6 -3,-4.8 -4.5,-10.933 -4.5,-18.4 0,-8 2.166,-15.3 6.5,-21.9 4.333,-6.6 10.866,-11.867 19.6,-15.8 8.733,-3.933 19.699,-5.9 32.9,-5.9 8.799,0 17.466,1.033 25.999,3.1 8.534,2.067 16.067,5.167 22.601,9.3l-10.001 24.6c-6.533,-3.733 -13.066,-6.5 -19.599,-8.3 -6.534,-1.8 -12.934,-2.7 -19.201,-2.7 -6.266,0 -11.399,0.733 -15.399,2.2 -4,1.467 -6.867,3.367 -8.6,5.7 -1.734,2.333 -2.6,5.033 -2.6,8.1 0,3.6 1.466,6.5 4.4,8.7 2.933,2.2 6.8,3.967 11.6,5.3 4.799,1.333 10.1,2.667 15.9,4 5.8,1.333 11.6,2.867 17.4,4.6 5.8,1.733 11.099,4.066 15.9,7 4.8,2.933 8.699,6.8 11.7,11.6 3,4.8 4.5,10.867 4.5,18.2 0,7.867 -2.201,15.067 -6.601,21.6 -4.399,6.533 -10.966,11.8 -19.699,15.8 -8.734,4 -19.767,6 -33.1,6z" />
		<path d="M326.099 327.6c-11.6,0 -21.933,-2.367 -31,-7.1 -9.066,-4.733 -16.166,-11.3 -21.299,-19.7 -5.134,-8.4 -7.7,-17.934 -7.7,-28.6 0,-10.8 2.566,-20.367 7.7,-28.7 5.133,-8.334 12.233,-14.867 21.299,-19.6 9.067,-4.733 19.4,-7.1 31,-7.1 11.334,0 21.2,2.367 29.6,7.1 8.401,4.733 14.6,11.5 18.6,20.3l-24.2 13c-2.8,-5.067 -6.3,-8.8 -10.5,-11.2 -4.199,-2.4 -8.766,-3.6 -13.699,-3.6 -5.334,0 -10.134,1.2 -14.4,3.6 -4.267,2.4 -7.634,5.8 -10.101,10.2 -2.466,4.4 -3.7,9.733 -3.7,16 0,6.267 1.234,11.6 3.7,16 2.467,4.4 5.834,7.8 10.101,10.2 4.266,2.4 9.066,3.6 14.4,3.6 4.933,0 9.5,-1.167 13.699,-3.5 4.2,-2.333 7.7,-6.1 10.5,-11.3l24.2 13.2c-4,8.667 -10.199,15.367 -18.6,20.1 -8.4,4.733 -18.266,7.1 -29.6,7.1z" />
	</g>
</svg>
